<svg xmlns="http://www.w3.org/2000/svg" xmlns:xlink="http://www.w3.org/1999/xlink" width="192" zoomAndPan="magnify" viewBox="0 0 144 143.999998" height="192" preserveAspectRatio="xMidYMid meet" version="1.2"><defs><clipPath id="52d9227476"><path d="M 2.386719 2.386719 L 141.613281 2.386719 L 141.613281 141.613281 L 2.386719 141.613281 Z M 2.386719 2.386719 "/></clipPath><clipPath id="c856cc09c4"><path d="M 72 2.386719 C 33.554688 2.386719 2.386719 33.554688 2.386719 72 C 2.386719 110.445312 33.554688 141.613281 72 141.613281 C 110.445312 141.613281 141.613281 110.445312 141.613281 72 C 141.613281 33.554688 110.445312 2.386719 72 2.386719 Z M 72 2.386719 "/></clipPath></defs><g id="389b2df111"><g clip-rule="nonzero" clip-path="url(#52d9227476)"><g clip-rule="nonzero" clip-path="url(#c856cc09c4)"><path style=" stroke:none;fill-rule:nonzero;fill:#ffffff;fill-opacity:1;" d="M 2.386719 2.386719 L 141.613281 2.386719 L 141.613281 141.613281 L 2.386719 141.613281 Z M 2.386719 2.386719 "/></g></g><path style=" stroke:none;fill-rule:evenodd;fill:#ed3237;fill-opacity:1;" d="M 96.382812 67.605469 L 86.796875 52.449219 L 66.773438 53.769531 C 102.191406 15.515625 114.589844 36.203125 96.382812 67.605469 Z M 96.382812 67.605469 "/><path style=" stroke:none;fill-rule:evenodd;fill:#a8cf45;fill-opacity:1;" d="M 96.335938 72.539062 L 87.105469 87.386719 L 66.496094 87.003906 C 106.410156 131.734375 109.792969 101.425781 96.335938 72.539062 Z M 96.335938 72.539062 "/><path style=" stroke:none;fill-rule:evenodd;fill:#fff212;fill-opacity:1;" d="M 64.566406 55.238281 L 53.949219 68.835938 L 62.9375 86.511719 C 11.597656 78.925781 11.777344 61.03125 64.566406 55.238281 Z M 64.566406 55.238281 "/><path style=" stroke:none;fill-rule:evenodd;fill:#373435;fill-opacity:1;" d="M 101.929688 87.292969 C -35.761719 92.554688 -0.0820312 45.175781 121.585938 52.546875 C -12.042969 53.074219 3.992188 88.289062 101.929688 87.292969 Z M 101.929688 87.292969 "/><path style=" stroke:none;fill-rule:evenodd;fill:#373435;fill-opacity:1;" d="M 45.503906 82.519531 C 105.355469 -20.792969 141.101562 26.605469 67.304688 115.800781 C 134.882812 17.445312 94.757812 8.257812 45.503906 82.519531 Z M 45.503906 82.519531 "/><path style=" stroke:none;fill-rule:evenodd;fill:#373435;fill-opacity:1;" d="M 36.382812 38.605469 C 89.914062 158.066406 141.808594 127.160156 79.59375 41.121094 C 136.644531 145.445312 73 115.675781 36.382812 38.605469 Z M 36.382812 38.605469 "/></g></svg>